<svg width="21" height="22" viewBox="0 0 21 22" fill="none" xmlns="http://www.w3.org/2000/svg">
<path d="M10.4414 19.6924C11.2617 19.6924 12.0508 19.5869 12.8086 19.376C13.5664 19.165 14.2813 18.8643 14.9531 18.4736C15.625 18.083 16.2266 17.6182 16.7578 17.0791C17.2891 16.54 17.7539 15.9346 18.1523 15.2627C18.5508 14.5908 18.8516 13.8799 19.0547 13.1299C19.2578 12.3799 19.3672 11.5869 19.3828 10.751C19.3828 9.93066 19.2773 9.1416 19.0664 8.38379C18.8555 7.62598 18.5547 6.91113 18.1641 6.23926C17.7734 5.56738 17.3086 4.96582 16.7695 4.43457C16.2305 3.90332 15.625 3.43848 14.9531 3.04004C14.2813 2.6416 13.5703 2.34082 12.8203 2.13769C12.0703 1.93457 11.2773 1.82519 10.4414 1.80957C9.6211 1.80957 8.83203 1.91504 8.07422 2.12598C7.31641 2.33691 6.60156 2.63769 5.92969 3.02832C5.25781 3.41894 4.65625 3.88379 4.125 4.42285C3.59375 4.96191 3.12891 5.56738 2.73047 6.23926C2.33203 6.91113 2.03125 7.62207 1.82813 8.37207C1.625 9.12207 1.51563 9.91504 1.5 10.751C1.5 11.5713 1.60547 12.3603 1.81641 13.1182C2.02734 13.876 2.32813 14.5869 2.71875 15.251C3.10938 15.915 3.57813 16.5205 4.125 17.0674C4.67188 17.6143 5.27344 18.0791 5.92969 18.4619C6.58594 18.8447 7.29688 19.1455 8.0625 19.3643C8.82813 19.583 9.62109 19.6924 10.4414 19.6924ZM10.4414 21.1924C9.48047 21.1924 8.55859 21.0674 7.67578 20.8174C6.79297 20.5674 5.96094 20.2158 5.17969 19.7627C4.39844 19.3096 3.69531 18.7666 3.07031 18.1338C2.44531 17.501 1.89844 16.7939 1.42969 16.0127C0.960938 15.2314 0.609376 14.4033 0.375001 13.5283C0.140626 12.6533 0.0156258 11.7275 9.12817e-07 10.751C9.96825e-07 9.79004 0.125001 8.86816 0.375001 7.98535C0.625001 7.10254 0.976564 6.27051 1.42969 5.48926C1.88281 4.70801 2.42578 4.00488 3.0586 3.37988C3.69141 2.75488 4.39844 2.20801 5.17969 1.73926C5.96094 1.27051 6.78906 0.918944 7.66406 0.684569C8.53906 0.450194 9.46485 0.325194 10.4414 0.309569C11.4023 0.309569 12.3242 0.43457 13.207 0.68457C14.0898 0.93457 14.9219 1.28613 15.7031 1.73926C16.4844 2.19238 17.1875 2.73535 17.8125 3.36816C18.4375 4.00098 18.9844 4.70801 19.4531 5.48926C19.9219 6.27051 20.2734 7.09863 20.5078 7.97363C20.7422 8.84863 20.8672 9.77441 20.8828 10.751C20.8828 11.7119 20.7578 12.6338 20.5078 13.5166C20.2578 14.3994 19.9063 15.2314 19.4531 16.0127C19 16.7939 18.457 17.4971 17.8242 18.1221C17.1914 18.7471 16.4844 19.2939 15.7031 19.7627C14.9219 20.2314 14.0938 20.583 13.2188 20.8174C12.3438 21.0518 11.418 21.1768 10.4414 21.1924ZM11.4727 5.29004L12.5273 6.34473L8.19141 10.6924L12.5273 15.04L11.4727 16.0947L6.07031 10.6924L11.4727 5.29004Z" fill="#BDC1CA"/>
</svg>
