<svg width="22" height="22" viewBox="0 0 22 22" fill="none" xmlns="http://www.w3.org/2000/svg">
<path d="M1.27255 10.7416L1.27246 10.7416V10.751C1.27246 11.6147 1.38358 12.4489 1.60718 13.2522C1.8294 14.0506 2.14667 14.8049 2.55896 15.514C2.9713 16.2232 3.46324 16.8603 4.03478 17.4235C4.60362 17.9841 5.2415 18.4735 5.94711 18.892C6.65765 19.3133 7.41039 19.6319 8.20425 19.8469C8.99672 20.0615 9.83067 20.176 10.7045 20.1923L10.7045 20.1924H10.7139C11.5775 20.1924 12.4118 20.0813 13.2151 19.8577C14.0135 19.6354 14.7678 19.3182 15.4769 18.9059C16.1861 18.4935 16.8231 18.0016 17.3864 17.4301C17.947 16.8612 18.4364 16.2233 18.8549 15.5177C19.2762 14.8072 19.5948 14.0545 19.8098 13.2606C20.0244 12.4681 20.1389 11.6342 20.1552 10.7603L20.1553 10.7603V10.751C20.1553 9.88729 20.0442 9.05302 19.8206 8.24971C19.5982 7.45094 19.2806 6.69975 18.8675 5.99747C18.4553 5.29677 17.9605 4.65771 17.3838 4.08102C16.8071 3.50432 16.1715 3.01299 15.4775 2.60815C14.7836 2.20335 14.0339 1.88658 13.2301 1.65693C12.4185 1.42504 11.5792 1.30957 10.7139 1.30957C9.85019 1.30957 9.01591 1.42069 8.2126 1.64429C7.41427 1.86651 6.65998 2.18378 5.95084 2.59607C5.24161 3.00841 4.60459 3.50035 4.04134 4.07189C3.48074 4.64073 2.99131 5.27861 2.57287 5.98422C2.1515 6.69476 1.83298 7.4475 1.61797 8.24136C1.40335 9.03383 1.28888 9.86778 1.27255 10.7416ZM13.3179 11.1626L13.67 10.8096L13.3179 10.4565L9.33456 6.46239L9.68262 6.11433L14.3779 10.8096L9.68262 15.5048L9.33456 15.1567L13.3179 11.1626ZM8.06589 1.16754C8.89714 0.944888 9.78061 0.824868 10.7179 0.809571C11.6335 0.809917 12.508 0.92913 13.3433 1.16565C14.1866 1.40448 14.9801 1.73988 15.7247 2.17177C16.4682 2.60297 17.1359 3.11878 17.7292 3.71951C18.3255 4.3233 18.8481 4.99858 19.2968 5.74651C19.7418 6.48809 20.075 7.27321 20.2973 8.103C20.52 8.93423 20.64 9.81768 20.6553 10.7549C20.6549 11.6705 20.5357 12.5451 20.2992 13.3804C20.0604 14.2237 19.725 15.0172 19.2931 15.7618C18.8619 16.5053 18.3461 17.173 17.7453 17.7663C17.1415 18.3627 16.4663 18.8852 15.7183 19.3339C14.9768 19.7789 14.1916 20.1121 13.3618 20.3344C12.5306 20.5571 11.6472 20.6771 10.7099 20.6924C9.7943 20.692 8.91971 20.5728 8.08448 20.3363C7.2411 20.0975 6.44765 19.7621 5.70301 19.3302C4.95957 18.899 4.29183 18.3832 3.69852 17.7824C3.10219 17.1787 2.57965 16.5034 2.13089 15.7554C1.68594 15.0139 1.3527 14.2287 1.13043 13.399C0.907779 12.5677 0.787759 11.6842 0.772462 10.747C0.772807 9.83138 0.89202 8.95681 1.12854 8.12159C1.36737 7.27821 1.70277 6.48476 2.13466 5.74012C2.56586 4.99668 3.08167 4.32894 3.68241 3.73563C4.28619 3.1393 4.96147 2.61676 5.7094 2.168C6.45098 1.72305 7.2361 1.38981 8.06589 1.16754Z" fill="#BDC1CA" stroke="#BDC1CA"/>
</svg>
